<svg width="203" height="144" viewBox="0 0 203 144" fill="none" xmlns="http://www.w3.org/2000/svg">
<path d="M201.679 46.7227C193.117 -4.44085 146.632 -5.52045 105.348 5.89296C64.0643 17.3064 38.9431 56.7786 49.238 94.0565C59.533 131.335 101.346 152.302 142.629 140.888C183.913 129.475 208.951 90.1786 201.679 46.7227Z" fill="#E0AD6E"/>
<path d="M97.3 78H107.5V75.68H99.82V71.98H105.86V69.74H99.82V66.32H107.5V64H97.3V78ZM120.282 78L116.182 70.76L120.002 64H117.202L114.602 68.88L112.002 64H109.202L113.042 70.76L108.942 78H111.722L114.602 72.6L117.502 78H120.282ZM122.105 78H124.605V72.72H128.065C130.625 72.72 132.505 70.8 132.505 68.36C132.505 65.92 130.625 64 128.065 64H122.105V78ZM124.605 70.4V66.32H127.865C129.105 66.32 130.005 67.1 130.005 68.36C130.005 69.52 129.165 70.4 127.865 70.4H124.605ZM134.507 64V78H145.107V75.68H137.007V64H134.507ZM151.809 78.3C155.209 78.3 157.109 75.68 157.109 71C157.109 66.3 155.209 63.7 151.809 63.7C148.409 63.7 146.509 66.3 146.509 71C146.509 75.68 148.409 78.3 151.809 78.3ZM151.809 75.98C149.969 75.98 149.009 74.4 149.009 71C149.009 67.58 149.969 66.02 151.809 66.02C153.669 66.02 154.609 67.58 154.609 71C154.609 74.4 153.669 75.98 151.809 75.98ZM166.812 72.14C168.432 71.56 169.472 70.1 169.472 68.22C169.472 65.8 167.612 64 165.172 64H159.312V78H161.812V72.4H163.052C164.652 72.4 165.572 73.22 165.912 75.06L166.472 78H169.432L168.592 74.52C168.312 73.28 167.652 72.46 166.812 72.14ZM161.812 70.08V66.32H164.932C166.192 66.32 166.972 67.04 166.972 68.22C166.972 69.36 166.212 70.08 164.932 70.08H161.812ZM171.714 78H181.914V75.68H174.234V71.98H180.274V69.74H174.234V66.32H181.914V64H171.714V78Z" fill="black"/>
<path fill-rule="evenodd" clip-rule="evenodd" d="M68.5074 68.4999L62.1148 62.1296L66.3225 57.8704L80 71.5L66.3225 85.1296L62.1148 80.8704L68.5077 74.4999H0V68.4999H68.5074Z" fill="white"/>
</svg>
