<svg width="181" height="136" viewBox="0 0 181 136" fill="none" xmlns="http://www.w3.org/2000/svg">
<path d="M108.143 0.375217C58.0393 -4.18707 45 33.6599 45 70.0713C45 106.483 75.4446 136 113 136C150.555 136 181 106.483 181 70.0713C181 33.6599 150.698 4.25021 108.143 0.375217Z" fill="#86FF9C"/>
<path d="M96.7 75.4346C100.1 75.4346 102 72.8146 102 68.1346C102 63.4346 100.1 60.8346 96.7 60.8346C93.3 60.8346 91.4 63.4346 91.4 68.1346C91.4 72.8146 93.3 75.4346 96.7 75.4346ZM96.7 73.1146C94.86 73.1146 93.9 71.5346 93.9 68.1346C93.9 64.7146 94.86 63.1546 96.7 63.1546C98.56 63.1546 99.5 64.7146 99.5 68.1346C99.5 71.5346 98.56 73.1146 96.7 73.1146ZM111.702 69.2746C113.322 68.6946 114.362 67.2346 114.362 65.3546C114.362 62.9346 112.502 61.1346 110.062 61.1346H104.202V75.1346H106.702V69.5346H107.942C109.542 69.5346 110.462 70.3546 110.802 72.1946L111.362 75.1346H114.322L113.482 71.6546C113.202 70.4146 112.542 69.5946 111.702 69.2746ZM106.702 67.2146V63.4546H109.822C111.082 63.4546 111.862 64.1746 111.862 65.3546C111.862 66.4946 111.102 67.2146 109.822 67.2146H106.702ZM116.605 61.1346V75.1346H121.165C124.825 75.1346 126.805 72.5946 126.805 68.1346C126.805 63.6546 124.825 61.1346 121.165 61.1346H116.605ZM120.925 72.8146H119.105V63.4546H120.925C123.265 63.4546 124.305 64.9346 124.305 68.1346C124.305 71.3146 123.265 72.8146 120.925 72.8146ZM129.007 75.1346H139.207V72.8146H131.527V69.1146H137.567V66.8746H131.527V63.4546H139.207V61.1346H129.007V75.1346ZM148.909 69.2746C150.529 68.6946 151.569 67.2346 151.569 65.3546C151.569 62.9346 149.709 61.1346 147.269 61.1346H141.409V75.1346H143.909V69.5346H145.149C146.749 69.5346 147.669 70.3546 148.009 72.1946L148.569 75.1346H151.529L150.689 71.6546C150.409 70.4146 149.749 69.5946 148.909 69.2746ZM143.909 67.2146V63.4546H147.029C148.289 63.4546 149.069 64.1746 149.069 65.3546C149.069 66.4946 148.309 67.2146 147.029 67.2146H143.909Z" fill="black"/>
<path d="M0 68.6345H76" stroke="white" stroke-width="6"/>
<path d="M64.4976 57.1346L76.0881 68.6346L64.4976 80.1346" stroke="white" stroke-width="6"/>
</svg>
