<svg width="140" height="140" viewBox="0 0 140 140" fill="none" xmlns="http://www.w3.org/2000/svg">
<g clip-path="url(#clip0_2_1212)">
<path d="M70.0059 0C31.3427 0 0 31.3427 0 70.0059C0 78.4348 1.2696 90.5158 4 98C13.7939 124.845 39.7716 140.012 70.0059 140.012C77.1365 140.012 92.0181 135.981 98.5 134C127.164 125.238 140.012 101.539 140.012 70.0059C140.012 58.8724 140.012 37.5 131.5 29C123 17.5 97.5356 0 70.0059 0Z" fill="#397C40"/>
<path d="M71.5994 104.189H49.527C42.0201 104.189 35.9413 98.1098 35.9413 90.6028V50.5775C35.9413 43.0706 42.0201 36.9918 49.527 36.9918H71.5994C79.1063 36.9918 85.1851 43.0706 85.1851 50.5775V90.6028C85.1851 98.1098 79.1063 104.189 71.5994 104.189Z" fill="black"/>
<path d="M85.1851 75.0105V50.5775C85.1851 43.0706 79.1063 36.9918 71.5994 36.9918H49.527C42.0201 36.9918 35.9413 43.0706 35.9413 50.5775V74.9987" fill="white"/>
<path d="M60.5632 79.0001C74.1615 79.0001 85.1851 77.0501 85.1851 74.6446C85.1851 72.2392 74.1615 70.2892 60.5632 70.2892C46.9649 70.2892 35.9413 72.2392 35.9413 74.6446C35.9413 77.0501 46.9649 79.0001 60.5632 79.0001Z" fill="white"/>
<path d="M93.7425 88.1005C99.1249 82.6473 99.0777 73.8538 93.6245 68.4597" stroke="black" stroke-width="3.5" stroke-miterlimit="10"/>
<path d="M99.7976 62.2393C108.686 71.021 108.78 85.3503 99.9983 94.2382" stroke="black" stroke-width="3.5" stroke-miterlimit="10"/>
<path d="M106.821 54.6969C119.073 67.8341 119.238 88.2067 107.246 101.556" stroke="black" stroke-width="3.5" stroke-miterlimit="10"/>
<path d="M77.2767 41.8076C77.2767 41.8076 69.9822 45.2424 60.9762 45.2424C51.9702 45.2424 44.6758 41.8076 44.6758 41.8076" stroke="black" stroke-width="3.5" stroke-miterlimit="10"/>
</g>
<defs>
<clipPath id="clip0_2_1212">
<rect width="140" height="140" fill="white"/>
</clipPath>
</defs>
</svg>
