<svg width="140" height="140" viewBox="0 0 140 140" fill="none" xmlns="http://www.w3.org/2000/svg">
<g clip-path="url(#clip0_2_1173)">
<path d="M47.8449 136.412C84.5197 148.651 124.172 128.842 136.412 92.1669C143.809 70 128.842 15.8394 92.1669 3.60021C70.1616 -3.74347 41.0841 5.04754 23.4995 17.5C11.7771 25.8011 8.49574 33.1754 3.60022 47.8449C-8.63898 84.5197 8.49953 123.281 47.8449 136.412Z" fill="#397C40"/>
<path d="M75.6833 32.719C85.3739 34.82 93.3766 42.4568 95.4422 52.7966C95.8199 54.6851 95.9733 56.5618 95.9261 58.415C92.1254 57.3291 88.0178 57.1048 83.8748 57.931C81.6086 58.3796 79.484 59.1232 77.501 60.091C77.501 60.091 75.6833 60.8701 73.5587 61.177C64.9658 62.4399 57.6477 57.7776 56.0425 49.6805C54.4962 41.9374 59.253 34.4069 66.7717 32.3649C69.817 31.9636 72.8269 32.0934 75.6833 32.719Z" fill="black"/>
<path d="M75.2466 28.3045C85.0316 29.8626 93.4474 37.0509 96.0914 47.2608C96.5753 49.1257 96.8232 50.9907 96.894 52.8438C93.0343 51.9703 88.9267 51.9703 84.8309 53.0326C82.6001 53.611 80.5109 54.4609 78.5869 55.5468C78.5869 55.5468 76.8164 56.4202 74.7036 56.8569C66.1934 58.6038 58.6392 54.3428 56.5736 46.3519C54.6024 38.7033 58.9343 30.9249 66.3232 28.4698C69.3449 27.8796 72.3547 27.8442 75.2466 28.3045Z" fill="white"/>
<path d="M102.666 103.138C95.9143 110.397 85.2677 113.383 75.3174 109.89C73.4997 109.252 71.8 108.426 70.2302 107.446C73.0984 104.731 75.3882 101.309 76.7928 97.3308C77.5601 95.1589 78.0086 92.9399 78.1856 90.7445C78.1856 90.7445 78.4453 88.7851 79.2598 86.7903C82.5529 78.7522 90.2959 74.8453 98.0744 77.5837C105.522 80.2041 109.571 88.1359 107.493 95.6429C106.313 98.4757 104.661 100.99 102.666 103.138Z" fill="black"/>
<path d="M29.4967 96.6107C23.6186 88.6317 22.6625 77.6073 27.9504 68.4833C28.9183 66.819 30.0514 65.3082 31.3026 63.939C33.439 67.2675 36.3662 70.1475 40.0253 72.2722C42.0201 73.4289 44.1093 74.2905 46.2339 74.8571C46.2339 74.8571 48.1106 75.4827 49.9165 76.6512C57.1992 81.3844 59.5953 89.7176 55.4641 96.8586C51.4982 103.693 42.9525 106.195 35.9649 102.76C33.4036 101.061 31.2318 98.9714 29.4967 96.6107Z" fill="black"/>
<path d="M81.5614 40.521C76.4623 39.0692 70.9974 38.5971 65.4026 39.2817C57.0104 40.3204 49.527 43.8378 43.6017 48.9959" stroke="black" stroke-width="3.5" stroke-miterlimit="10"/>
<path d="M102.666 98.4167C95.9143 105.676 85.2677 108.662 75.3174 105.168C73.4997 104.531 71.8 103.705 70.2302 102.725C73.0984 100.01 75.3882 96.5871 76.7928 92.6094C77.5601 90.4376 78.0086 88.2185 78.1856 86.0231C78.1856 86.0231 78.4453 84.0637 79.2598 82.069C82.5529 74.0309 90.2959 70.1239 98.0744 72.8623C105.522 75.4827 109.571 83.4146 107.493 90.9215C106.313 93.7543 104.661 96.2684 102.666 98.4167Z" fill="white"/>
<path d="M89.0094 96.8586C93.058 93.4356 96.4927 89.151 99.0423 84.1228C102.855 76.5804 104.106 68.4125 103.114 60.6104" stroke="black" stroke-width="3.5" stroke-miterlimit="10"/>
<path d="M28.7767 88.7615C24.7399 79.7083 26.1563 68.7311 33.2737 60.9527C34.5721 59.5363 36.0003 58.2969 37.5112 57.2346C38.8922 60.9409 41.1348 64.3875 44.2509 67.2321C45.9506 68.7901 47.8155 70.0767 49.7631 71.0918C49.7631 71.0918 51.4628 72.0951 52.9736 73.6295C59.076 79.8027 59.6425 88.4664 54.0831 94.5569C48.748 100.388 39.8718 101.002 33.7813 96.1622C31.6449 93.9432 29.9688 91.4408 28.7767 88.7615Z" fill="white"/>
<path d="M35.5636 76.8046C37.1334 81.8683 39.7184 86.7077 43.3538 91.0159C48.807 97.4724 55.83 101.828 63.396 103.964" stroke="black" stroke-width="3.5" stroke-miterlimit="10"/>
</g>
<defs>
<clipPath id="clip0_2_1173">
<rect width="140" height="140" fill="white"/>
</clipPath>
</defs>
</svg>
