<svg width="140" height="140" viewBox="0 0 140 140" fill="none" xmlns="http://www.w3.org/2000/svg">
<g clip-path="url(#clip0_2_1194)">
<path d="M70.0059 140.012C97 140.012 140.012 108.669 140.012 70.0059C140.012 63.2365 136.293 49.1916 134.5 43C126.054 13.8282 101.9 0 70.0059 0C46 0 0 31.3427 0 70.0059C0 98.5175 15.0445 124.048 39.5 134.964C48.2074 138.851 59.8543 140.012 70.0059 140.012Z" fill="#397C40"/>
<path d="M67.7986 114.21V77.3358" stroke="black" stroke-width="5" stroke-miterlimit="10"/>
<path d="M59.1468 42.563V24.1261" stroke="black" stroke-width="5" stroke-miterlimit="10"/>
<path d="M76.2617 42.563V24.1261" stroke="black" stroke-width="5" stroke-miterlimit="10"/>
<path d="M86.1803 103.988C84.5751 105.593 82.356 106.585 79.9127 106.585H69.4785C69.4785 92.8101 74.6366 90.6029 74.6366 90.6029C76.112 89.5052 77.9415 88.856 79.9245 88.856H92.4597C92.4479 88.8442 93.5338 97.496 86.1803 103.988Z" fill="black"/>
<path d="M49.1693 103.988C50.7746 105.593 52.9936 106.585 55.4369 106.585H65.8711C65.8711 92.8101 60.713 90.6029 60.713 90.6029C59.2376 89.5052 57.4081 88.856 55.4251 88.856H42.9017C42.9017 88.8442 41.8276 97.496 49.1693 103.988Z" fill="black"/>
<path d="M86.1803 101.627C84.5751 103.232 82.356 104.224 79.9127 104.224H69.4785C69.4785 90.4494 74.6366 88.2422 74.6366 88.2422C76.112 87.1444 77.9415 86.4953 79.9245 86.4953H92.4597C92.4479 86.4834 93.5338 95.1353 86.1803 101.627Z" fill="white"/>
<path d="M87.6166 64.8006C87.6166 75.7306 78.7523 84.5949 67.8223 84.5949C56.8924 84.5949 48.0162 75.7306 48.0162 64.8006V43.9794H87.6048V64.8006H87.6166Z" fill="black"/>
<path d="M49.1693 101.627C50.7746 103.232 52.9936 104.224 55.4369 104.224H65.8711C65.8711 90.4494 60.713 88.2422 60.713 88.2422C59.2376 87.1444 57.4081 86.4953 55.4251 86.4953H42.9017C42.9017 86.4834 41.8276 95.1353 49.1693 101.627Z" fill="white"/>
<path d="M87.6166 60.457C87.6166 71.3869 78.7522 80.2512 67.8223 80.2512C56.8923 80.2512 48.028 71.3869 48.028 60.457V39.6476H87.6166V60.457Z" fill="white"/>
<path d="M43.9794 48.0752H91.6533" stroke="black" stroke-width="5" stroke-miterlimit="10"/>
<path d="M50.7428 93.5773C53.2215 93.8842 55.6766 94.6868 57.9783 96.0088C61.4249 98.0035 64.0216 100.895 65.6505 104.224" stroke="black" stroke-width="3.5" stroke-miterlimit="10"/>
<path d="M84.4179 93.5773C81.9392 93.8842 79.4841 94.6868 77.1824 96.0088C73.7358 98.0035 71.1391 100.895 69.5102 104.224" stroke="black" stroke-width="3.5" stroke-miterlimit="10"/>
</g>
<defs>
<clipPath id="clip0_2_1194">
<rect width="140" height="140" fill="white"/>
</clipPath>
</defs>
</svg>
