<svg width="32" height="32" viewBox="0 0 32 32" fill="none" xmlns="http://www.w3.org/2000/svg">
<path fill-rule="evenodd" clip-rule="evenodd" d="M0 16C0 24.8366 7.16344 32 16 32C24.8366 32 32 24.8366 32 16C32 7.16344 24.8366 0 16 0C7.16344 0 0 7.16344 0 16Z" fill="#E0AD6E"/>
<path fill-rule="evenodd" clip-rule="evenodd" d="M8 20.3007C8 22.4944 9.77834 24.2727 11.972 24.2727H19.3007C21.4944 24.2727 23.2727 22.4944 23.2727 20.3007V12.972C23.2727 10.7783 21.4944 8.99998 19.3007 8.99998H11.972C9.77834 8.99998 8 10.7783 8 12.972V20.3007ZM11.972 23.0419C10.4581 23.0419 9.23077 21.8146 9.23077 20.3007V12.972C9.23077 11.458 10.4581 10.2307 11.972 10.2307H19.3007C20.8147 10.2307 22.042 11.458 22.042 12.972V20.3007C22.042 21.8146 20.8147 23.0419 19.3007 23.0419H11.972Z" fill="black"/>
<path fill-rule="evenodd" clip-rule="evenodd" d="M11.7483 16.6363C11.7483 18.7837 13.489 20.5245 15.6364 20.5245C17.7837 20.5245 19.5245 18.7837 19.5245 16.6363C19.5245 14.489 17.7837 12.7482 15.6364 12.7482C13.489 12.7482 11.7483 14.489 11.7483 16.6363ZM15.6364 19.2937C14.1688 19.2937 12.979 18.104 12.979 16.6363C12.979 15.1687 14.1688 13.979 15.6364 13.979C17.104 13.979 18.2937 15.1687 18.2937 16.6363C18.2937 18.104 17.104 19.2937 15.6364 19.2937Z" fill="black"/>
<path d="M18.8531 20.7762C18.8531 21.286 19.2664 21.6993 19.7762 21.6993C20.286 21.6993 20.6993 21.286 20.6993 20.7762C20.6993 20.2664 20.286 19.8531 19.7762 19.8531C19.2664 19.8531 18.8531 20.2664 18.8531 20.7762Z" fill="black"/>
</svg>
