<svg width="32" height="32" viewBox="0 0 32 32" fill="none" xmlns="http://www.w3.org/2000/svg">
<path fill-rule="evenodd" clip-rule="evenodd" d="M0 16C0 7.16344 7.16344 0 16 0C24.8366 0 32 7.16344 32 16C32 24.8366 24.8366 32 16 32C7.16344 32 0 24.8366 0 16Z" fill="#E0AD6E"/>
<path d="M19.4687 8.95093V11.6642H17.5666C16.9848 11.6642 16.8766 12.1864 16.8953 12.4474V14.2097H19.4687L19.1051 16.9509H16.8953V25.0628H13.5387V16.9509H11.7484V14.2097H13.5387V12.1118C13.5387 11.5244 13.5666 10.881 14.182 9.98589C14.6743 9.26981 15.562 8.99755 15.9442 8.95093H19.4687Z" fill="black"/>
</svg>
