<svg width="32" height="32" viewBox="0 0 32 32" fill="none" xmlns="http://www.w3.org/2000/svg">
<path fill-rule="evenodd" clip-rule="evenodd" d="M0 16C0 7.16344 7.16344 0 16 0C24.8366 0 32 7.16344 32 16C32 24.8366 24.8366 32 16 32C7.16344 32 0 24.8366 0 16Z" fill="#E0AD6E"/>
<path d="M21.6434 12.1357C22.2867 11.9399 23.0047 11.4738 23.4056 11.2127C23.3403 11.5856 22.2867 12.9749 22.2867 12.9749C22.6224 12.9376 23.3944 12.7903 23.7972 12.4994C23.5082 12.919 22.8014 13.8532 22.2867 14.2336C22.3613 15.5204 21.9622 18.6588 19.7692 20.919C17.028 23.7441 13.979 23.6322 12.4685 23.4924C11.2601 23.3805 9.65268 22.6252 9 22.2616C10.0909 22.3642 12.5077 22.2392 13.4476 20.919C12.7669 20.8164 11.2657 20.242 10.7063 18.7651C10.9953 18.8117 11.6462 18.877 11.9371 18.7651C11.1445 18.3921 9.55944 17.1931 9.55944 15.3805C9.78322 15.5483 10.3706 15.8952 10.9301 15.9399C10.2308 15.222 9.08392 13.3329 10.0909 11.5203C10.8648 12.7232 13.1958 15.0784 16.3287 14.877C16.2168 14.0752 16.3622 12.2476 17.8392 11.3525C19.6853 10.2337 21.6434 12.1357 21.6434 12.1357Z" fill="black"/>
</svg>
